<svg width="24" height="24" viewBox="0 0 24 24" fill="none" xmlns="http://www.w3.org/2000/svg">
<mask id="mask0" mask-type="alpha" maskUnits="userSpaceOnUse" x="1" y="2" width="22" height="20">
<path fill-rule="evenodd" clip-rule="evenodd" d="M8 15C8 14.4477 8.44772 14 9 14H11C11.5523 14 12 14.4477 12 15C12 15.5523 11.5523 16 11 16H9C8.44772 16 8 15.5523 8 15Z" fill="#919EAB"/>
<path fill-rule="evenodd" clip-rule="evenodd" d="M8 18C8 17.4477 8.44772 17 9 17H11C11.5523 17 12 17.4477 12 18C12 18.5523 11.5523 19 11 19H9C8.44772 19 8 18.5523 8 18Z" fill="#919EAB"/>
<path fill-rule="evenodd" clip-rule="evenodd" d="M8 12C8 11.4477 8.44772 11 9 11H11C11.5523 11 12 11.4477 12 12C12 12.5523 11.5523 13 11 13H9C8.44772 13 8 12.5523 8 12Z" fill="#919EAB"/>
<path fill-rule="evenodd" clip-rule="evenodd" d="M12.2873 2.04218C11.9846 1.95135 11.6567 2.00902 11.4031 2.19772C11.1495 2.38641 11 2.6839 11 3.00001V6.00001C11 6.55229 11.4477 7.00001 12 7.00001C12.5523 7.00001 13 6.55229 13 6.00001V4.34404L21 6.74404V20H15V9.00001C15 8.44772 14.5523 8.00001 14 8.00001H6C5.44772 8.00001 5 8.44772 5 9.00001V11H2C1.44772 11 1 11.4477 1 12V21C1 21.5523 1.44772 22 2 22H5.99605C5.99737 22 5.99868 22 6 22H22C22.5523 22 23 21.5523 23 21V6.00001C23 5.5584 22.7103 5.16908 22.2873 5.04218L12.2873 2.04218ZM5 20V13H3V20H5ZM7 12V20H13V10H7V12Z" fill="#919EAB"/>
<path fill-rule="evenodd" clip-rule="evenodd" d="M18 8C18.5523 8 19 8.44772 19 9V18C19 18.5523 18.5523 19 18 19C17.4477 19 17 18.5523 17 18V9C17 8.44772 17.4477 8 18 8Z" fill="#919EAB"/>
</mask>
<g mask="url(#mask0)">
<rect x="-50" y="-50" width="125" height="125" fill="#919EAB"/>
</g>
</svg>
